<svg width="1280" height="720" viewBox="0 0 1280 720" fill="none" xmlns="http://www.w3.org/2000/svg">
<g clip-path="url(#clip0_1297_8261)">
<mask id="mask0_1297_8261" style="mask-type:luminance" maskUnits="userSpaceOnUse" x="0" y="0" width="1280" height="720">
<path d="M1280 0H0V720H1280V0Z" fill="white"/>
</mask>
<g mask="url(#mask0_1297_8261)">
<mask id="mask1_1297_8261" style="mask-type:luminance" maskUnits="userSpaceOnUse" x="0" y="0" width="1280" height="720">
<path d="M1280 0H0V720H1280V0Z" fill="white"/>
</mask>
<g mask="url(#mask1_1297_8261)">
<mask id="mask2_1297_8261" style="mask-type:luminance" maskUnits="userSpaceOnUse" x="0" y="0" width="1280" height="720">
<path d="M1280 0H0V720H1280V0Z" fill="white"/>
</mask>
<g mask="url(#mask2_1297_8261)">
<path d="M1280 0H0V720H1280V0Z" fill="#ECEBDE"/>
<path d="M1280 0H0V140H1280V0Z" fill="white"/>
<path d="M1280 0H0V74H1280V0Z" fill="white"/>
<path d="M274 7.69506e-06L1280 0V20L274 7.69506e-06Z" fill="#E0733D"/>
<path d="M1014 0L0 12.5007L5.46425e-07 0.000331681L1014 0Z" fill="#E0733D"/>
<path d="M487.5 720.001H0L3.40949e-06 708.359L487.5 720.001Z" fill="#E0733D"/>
<path d="M345 719.997H1280V693.43L345 719.997Z" fill="#233439"/>
<path d="M0.498047 689.961L115.498 719.961" stroke="#233439"/>
<path d="M0 139.5H1280" stroke="#DADADA"/>
<path d="M0 73.5H1280" stroke="#DADADA"/>
</g>
<path d="M448.633 506.45V500.148H450.453C452.776 500.148 453.938 501.172 453.938 503.22C453.938 504.193 453.615 504.975 452.971 505.567C452.326 506.156 451.462 506.45 450.378 506.45H448.633ZM449.675 501.036V505.567H450.51C451.245 505.567 451.816 505.365 452.224 504.96C452.634 504.556 452.839 503.985 452.839 503.247C452.839 501.773 452.076 501.036 450.549 501.036H449.675ZM458.433 506.45H457.444V505.747H457.427C457.116 506.286 456.661 506.556 456.06 506.556C455.618 506.556 455.271 506.435 455.019 506.195C454.77 505.955 454.645 505.637 454.645 505.242C454.645 504.392 455.134 503.897 456.113 503.756L457.449 503.567C457.449 502.926 457.144 502.605 456.535 502.605C455.999 502.605 455.515 502.789 455.084 503.159V502.267C455.559 501.985 456.107 501.845 456.728 501.845C457.865 501.845 458.433 502.404 458.433 503.523V506.45ZM457.449 504.24L456.504 504.372C456.211 504.41 455.99 504.481 455.84 504.587C455.694 504.689 455.621 504.871 455.621 505.132C455.621 505.322 455.688 505.479 455.823 505.602C455.96 505.722 456.144 505.782 456.372 505.782C456.683 505.782 456.939 505.674 457.141 505.457C457.346 505.237 457.449 504.962 457.449 504.631V504.24ZM462.054 506.402C461.855 506.501 461.593 506.551 461.268 506.551C460.395 506.551 459.958 506.132 459.958 505.294V502.75H459.207V501.95H459.958V500.909L460.978 500.619V501.95H462.054V502.75H460.978V505C460.978 505.267 461.026 505.457 461.123 505.571C461.219 505.685 461.38 505.743 461.606 505.743C461.779 505.743 461.928 505.693 462.054 505.593V506.402ZM466.387 506.45H465.398V505.747H465.381C465.07 506.286 464.615 506.556 464.014 506.556C463.572 506.556 463.225 506.435 462.973 506.195C462.724 505.955 462.599 505.637 462.599 505.242C462.599 504.392 463.088 503.897 464.067 503.756L465.403 503.567C465.403 502.926 465.098 502.605 464.489 502.605C463.953 502.605 463.469 502.789 463.039 503.159V502.267C463.513 501.985 464.061 501.845 464.682 501.845C465.819 501.845 466.387 502.404 466.387 503.523V506.45ZM465.403 504.24L464.458 504.372C464.165 504.41 463.944 504.481 463.794 504.587C463.648 504.689 463.575 504.871 463.575 505.132C463.575 505.322 463.642 505.479 463.777 505.602C463.915 505.722 464.098 505.782 464.326 505.782C464.637 505.782 464.893 505.674 465.095 505.457C465.3 505.237 465.403 504.962 465.403 504.631V504.24Z" fill="white"/>
<path d="M576.621 506.187C576.146 506.434 575.556 506.557 574.85 506.557C573.936 506.557 573.203 506.268 572.652 505.691C572.102 505.114 571.826 504.356 571.826 503.419C571.826 502.411 572.135 501.597 572.753 500.976C573.375 500.354 574.158 500.044 575.104 500.044C575.714 500.044 576.219 500.13 576.621 500.303V501.34C576.196 501.088 575.727 500.962 575.214 500.962C574.532 500.962 573.978 501.181 573.553 501.617C573.131 502.054 572.92 502.637 572.92 503.366C572.92 504.06 573.118 504.614 573.514 505.027C573.909 505.437 574.429 505.643 575.074 505.643C575.668 505.643 576.184 505.502 576.621 505.221V506.187ZM578.726 506.451H577.702V499.789H578.726V506.451ZM580.571 501.006C580.404 501.006 580.261 500.952 580.141 500.844C580.023 500.735 579.965 500.598 579.965 500.431C579.965 500.264 580.023 500.124 580.141 500.013C580.261 499.902 580.404 499.846 580.571 499.846C580.744 499.846 580.891 499.902 581.011 500.013C581.131 500.124 581.191 500.264 581.191 500.431C581.191 500.589 581.131 500.725 581.011 500.839C580.891 500.951 580.744 501.006 580.571 501.006ZM581.077 506.451H580.057V501.951H581.077V506.451ZM586.223 504.478H583.155C583.167 504.894 583.294 505.215 583.538 505.44C583.784 505.666 584.121 505.779 584.548 505.779C585.029 505.779 585.47 505.635 585.871 505.348V506.17C585.461 506.428 584.919 506.557 584.245 506.557C583.583 506.557 583.063 506.353 582.685 505.946C582.31 505.536 582.123 504.96 582.123 504.219C582.123 503.519 582.329 502.949 582.742 502.509C583.158 502.067 583.674 501.846 584.289 501.846C584.904 501.846 585.38 502.043 585.717 502.439C586.054 502.834 586.223 503.384 586.223 504.087V504.478ZM585.238 503.757C585.235 503.391 585.149 503.107 584.979 502.905C584.809 502.7 584.575 502.597 584.276 502.597C583.983 502.597 583.734 502.704 583.529 502.918C583.327 503.132 583.202 503.412 583.155 503.757H585.238ZM591.202 506.451H590.182V503.915C590.182 503.075 589.885 502.654 589.29 502.654C588.979 502.654 588.723 502.771 588.521 503.006C588.319 503.237 588.218 503.53 588.218 503.885V506.451H587.194V501.951H588.218V502.698H588.235C588.572 502.13 589.059 501.846 589.694 501.846C590.184 501.846 590.557 502.005 590.815 502.325C591.073 502.641 591.202 503.1 591.202 503.7V506.451ZM594.823 506.403C594.624 506.502 594.361 506.552 594.036 506.552C593.163 506.552 592.727 506.133 592.727 505.295V502.751H591.975V501.951H592.727V500.91L593.746 500.62V501.951H594.823V502.751H593.746V505.001C593.746 505.268 593.794 505.458 593.891 505.572C593.988 505.686 594.149 505.744 594.375 505.744C594.547 505.744 594.697 505.694 594.823 505.594V506.403ZM599.459 504.478H596.392C596.403 504.894 596.531 505.215 596.774 505.44C597.02 505.666 597.357 505.779 597.785 505.779C598.265 505.779 598.706 505.635 599.107 505.348V506.17C598.697 506.428 598.155 506.557 597.481 506.557C596.819 506.557 596.299 506.353 595.921 505.946C595.546 505.536 595.359 504.96 595.359 504.219C595.359 503.519 595.565 502.949 595.979 502.509C596.395 502.067 596.91 501.846 597.525 501.846C598.141 501.846 598.617 502.043 598.954 502.439C599.291 502.834 599.459 503.384 599.459 504.087V504.478ZM598.475 503.757C598.472 503.391 598.385 503.107 598.215 502.905C598.045 502.7 597.811 502.597 597.512 502.597C597.219 502.597 596.97 502.704 596.765 502.918C596.563 503.132 596.438 503.412 596.392 503.757H598.475Z" fill="white"/>
</g>
<g filter="url(#filter0_d_1297_8261)">
<path d="M842 260H14V467H842V260Z" fill="white"/>
</g>
<g filter="url(#filter1_d_1297_8261)">
<path d="M1261 156H858V689H1261V156Z" fill="white"/>
</g>
<g filter="url(#filter2_d_1297_8261)">
<path d="M843 482H16V689H843V482Z" fill="white"/>
</g>
<g filter="url(#filter3_d_1297_8261)">
<path d="M208.333 155H18V245H208.333V155Z" fill="white"/>
</g>
<g filter="url(#filter4_d_1297_8261)">
<path d="M418.666 155H228.333V245H418.666V155Z" fill="white"/>
</g>
<g filter="url(#filter5_d_1297_8261)">
<path d="M629 155H438.667V245H629V155Z" fill="white"/>
</g>
<g filter="url(#filter6_d_1297_8261)">
<path d="M839.333 155H649V245H839.333V155Z" fill="white"/>
</g>
</g>
<path d="M156.834 49.1465H156.094L152.095 38.27H153.721L156.482 46.1729L159.141 38.27H160.716L156.834 49.1465ZM162.964 38.1895C163.204 38.1895 163.406 38.2749 163.572 38.4458C163.743 38.6118 163.829 38.812 163.829 39.0464C163.829 39.2856 163.743 39.4907 163.572 39.6616C163.406 39.8276 163.204 39.9106 162.964 39.9106C162.73 39.9106 162.527 39.8276 162.356 39.6616C162.19 39.4907 162.107 39.2856 162.107 39.0464C162.107 38.8071 162.19 38.6045 162.356 38.4385C162.522 38.2725 162.725 38.1895 162.964 38.1895ZM162.203 49V42.3276H161.126V41.1558H163.594V49H162.203ZM165.293 48.5312L165.784 47.2129C166.561 47.7207 167.186 47.9746 167.659 47.9746C168.519 47.9746 168.948 47.6133 168.948 46.8906C168.948 46.373 168.533 45.9287 167.703 45.5576C167.063 45.2646 166.631 45.0425 166.407 44.8911C166.187 44.7397 165.994 44.5688 165.828 44.3784C165.667 44.1831 165.545 43.978 165.462 43.7632C165.384 43.5435 165.345 43.3091 165.345 43.0601C165.345 42.4155 165.579 41.9126 166.048 41.5513C166.517 41.1899 167.129 41.0093 167.886 41.0093C168.458 41.0093 169.178 41.1899 170.047 41.5513L169.651 42.8403C169.1 42.4009 168.545 42.1812 167.989 42.1812C167.657 42.1812 167.376 42.2593 167.146 42.4155C166.922 42.5718 166.81 42.7695 166.81 43.0088C166.81 43.5117 167.095 43.8926 167.667 44.1514L168.663 44.6055C169.273 44.8838 169.717 45.2012 169.996 45.5576C170.274 45.9141 170.413 46.3608 170.413 46.8979C170.413 47.6011 170.167 48.1528 169.673 48.5532C169.18 48.9487 168.497 49.1465 167.623 49.1465C166.797 49.1465 166.021 48.9414 165.293 48.5312ZM176.316 48.0991C175.76 48.7974 174.908 49.1465 173.76 49.1465C173.145 49.1465 172.61 48.9243 172.156 48.48C171.707 48.0308 171.482 47.4741 171.482 46.8101C171.482 46.0142 171.829 45.3428 172.522 44.7959C173.221 44.2441 174.109 43.9683 175.188 43.9683C175.481 43.9683 175.813 44.0317 176.185 44.1587C176.185 42.8892 175.618 42.2544 174.485 42.2544C173.616 42.2544 172.947 42.4888 172.479 42.9575L171.893 41.793C172.156 41.5781 172.52 41.395 172.984 41.2437C173.453 41.0874 173.899 41.0093 174.324 41.0093C175.462 41.0093 176.287 41.2681 176.8 41.7856C177.317 42.3032 177.576 43.126 177.576 44.2539V47.0664C177.576 47.7549 177.781 48.2139 178.191 48.4434V49.1392C177.625 49.1392 177.2 49.0586 176.917 48.8975C176.639 48.7363 176.438 48.4702 176.316 48.0991ZM176.185 45.1475C175.745 45.0498 175.438 45.001 175.262 45.001C174.559 45.001 173.985 45.1816 173.541 45.543C173.096 45.9043 172.874 46.3315 172.874 46.8247C172.874 47.6401 173.355 48.0479 174.317 48.0479C175.02 48.0479 175.643 47.7134 176.185 47.0444V45.1475ZM176.998 38.0723C176.739 39.083 176.27 39.5884 175.591 39.5884C175.284 39.5884 174.944 39.4956 174.573 39.3101C174.207 39.1196 173.948 39.0244 173.797 39.0244C173.45 39.0244 173.187 39.2124 173.006 39.5884H172.339C172.408 39.1782 172.564 38.8242 172.808 38.5264C173.057 38.2236 173.35 38.0723 173.687 38.0723C174.087 38.0723 174.456 38.1675 174.793 38.3579C175.135 38.5435 175.391 38.6362 175.562 38.6362C175.958 38.6362 176.221 38.4482 176.353 38.0723H176.998ZM179.253 45.0596C179.253 43.8486 179.578 42.8721 180.228 42.1299C180.882 41.3828 181.741 41.0093 182.806 41.0093C183.929 41.0093 184.8 41.3682 185.42 42.0859C186.041 42.7988 186.351 43.79 186.351 45.0596C186.351 46.3242 186.033 47.3228 185.398 48.0552C184.764 48.7827 183.899 49.1465 182.806 49.1465C181.688 49.1465 180.816 48.7778 180.191 48.0405C179.566 47.3032 179.253 46.3096 179.253 45.0596ZM180.718 45.0596C180.718 47.0273 181.414 48.0112 182.806 48.0112C183.455 48.0112 183.963 47.7476 184.329 47.2202C184.7 46.6929 184.886 45.9727 184.886 45.0596C184.886 43.1162 184.192 42.1445 182.806 42.1445C182.171 42.1445 181.663 42.4033 181.282 42.9209C180.906 43.4385 180.718 44.1514 180.718 45.0596ZM199.893 39.0171L199.285 40.2256C198.548 39.6787 197.825 39.4053 197.117 39.4053C195.994 39.4053 195.108 39.8008 194.458 40.5918C193.809 41.3828 193.484 42.4302 193.484 43.7339C193.484 44.9741 193.802 45.9727 194.437 46.7295C195.076 47.4863 195.945 47.8647 197.044 47.8647C197.825 47.8647 198.458 47.6304 198.941 47.1616V44.6494H197.454V43.4043H200.406V48.0771C200.015 48.4092 199.471 48.6777 198.772 48.8828C198.074 49.083 197.396 49.1831 196.736 49.1831C195.257 49.1831 194.087 48.6826 193.228 47.6816C192.374 46.6758 191.946 45.3403 191.946 43.6753C191.946 42.0151 192.415 40.6699 193.353 39.6396C194.295 38.6045 195.564 38.0869 197.161 38.0869C198.279 38.0869 199.19 38.397 199.893 39.0171ZM209.107 45.2134H203.453C203.453 46.1313 203.704 46.8369 204.207 47.3301C204.651 47.7598 205.223 47.9746 205.921 47.9746C206.717 47.9746 207.381 47.7427 207.913 47.2788L208.499 48.2822C208.284 48.4971 207.955 48.6826 207.51 48.8389C206.954 49.0439 206.333 49.1465 205.65 49.1465C204.664 49.1465 203.826 48.812 203.138 48.1431C202.371 47.4058 201.988 46.4146 201.988 45.1694C201.988 43.8755 202.381 42.8379 203.167 42.0566C203.87 41.3584 204.703 41.0093 205.665 41.0093C206.783 41.0093 207.659 41.3242 208.294 41.9541C208.909 42.5596 209.217 43.3628 209.217 44.3638C209.217 44.6714 209.18 44.9546 209.107 45.2134ZM205.73 42.1812C205.11 42.1812 204.59 42.3813 204.17 42.7817C203.77 43.1626 203.543 43.6362 203.489 44.2026H207.833C207.833 43.6411 207.657 43.1724 207.305 42.7964C206.919 42.3862 206.395 42.1812 205.73 42.1812ZM214.952 42.4961C214.649 42.2861 214.344 42.1812 214.036 42.1812C213.543 42.1812 213.111 42.4082 212.74 42.8623C212.374 43.3164 212.19 43.8633 212.19 44.5029V49H210.799V41.1558H212.19V42.4082C212.698 41.4756 213.453 41.0093 214.454 41.0093C214.703 41.0093 215.062 41.0532 215.53 41.1411L214.952 42.4961ZM220.95 48.0991C220.394 48.7974 219.542 49.1465 218.394 49.1465C217.779 49.1465 217.244 48.9243 216.79 48.48C216.341 48.0308 216.116 47.4741 216.116 46.8101C216.116 46.0142 216.463 45.3428 217.156 44.7959C217.854 44.2441 218.743 43.9683 219.822 43.9683C220.115 43.9683 220.447 44.0317 220.818 44.1587C220.818 42.8892 220.252 42.2544 219.119 42.2544C218.25 42.2544 217.581 42.4888 217.112 42.9575L216.526 41.793C216.79 41.5781 217.154 41.395 217.618 41.2437C218.086 41.0874 218.533 41.0093 218.958 41.0093C220.096 41.0093 220.921 41.2681 221.434 41.7856C221.951 42.3032 222.21 43.126 222.21 44.2539V47.0664C222.21 47.7549 222.415 48.2139 222.825 48.4434V49.1392C222.259 49.1392 221.834 49.0586 221.551 48.8975C221.272 48.7363 221.072 48.4702 220.95 48.0991ZM220.818 45.1475C220.379 45.0498 220.071 45.001 219.896 45.001C219.192 45.001 218.619 45.1816 218.174 45.543C217.73 45.9043 217.508 46.3315 217.508 46.8247C217.508 47.6401 217.989 48.0479 218.951 48.0479C219.654 48.0479 220.276 47.7134 220.818 47.0444V45.1475ZM224.51 46.7808V37.9404H225.901V46.5464C225.901 46.9663 226.021 47.2983 226.26 47.5425C226.504 47.7817 226.822 47.9014 227.212 47.9014V49.1465C225.411 49.1465 224.51 48.3579 224.51 46.7808Z" fill="black"/>
</g>
<defs>
<filter id="filter0_d_1297_8261" x="14" y="260" width="836" height="215" filterUnits="userSpaceOnUse" color-interpolation-filters="sRGB">
<feFlood flood-opacity="0" result="BackgroundImageFix"/>
<feColorMatrix in="SourceAlpha" type="matrix" values="0 0 0 0 0 0 0 0 0 0 0 0 0 0 0 0 0 0 127 0" result="hardAlpha"/>
<feOffset dx="4" dy="4"/>
<feGaussianBlur stdDeviation="2"/>
<feComposite in2="hardAlpha" operator="out"/>
<feColorMatrix type="matrix" values="0 0 0 0 0 0 0 0 0 0 0 0 0 0 0 0 0 0 0.05 0"/>
<feBlend mode="normal" in2="BackgroundImageFix" result="effect1_dropShadow_1297_8261"/>
<feBlend mode="normal" in="SourceGraphic" in2="effect1_dropShadow_1297_8261" result="shape"/>
</filter>
<filter id="filter1_d_1297_8261" x="858" y="156" width="411" height="541" filterUnits="userSpaceOnUse" color-interpolation-filters="sRGB">
<feFlood flood-opacity="0" result="BackgroundImageFix"/>
<feColorMatrix in="SourceAlpha" type="matrix" values="0 0 0 0 0 0 0 0 0 0 0 0 0 0 0 0 0 0 127 0" result="hardAlpha"/>
<feOffset dx="4" dy="4"/>
<feGaussianBlur stdDeviation="2"/>
<feComposite in2="hardAlpha" operator="out"/>
<feColorMatrix type="matrix" values="0 0 0 0 0 0 0 0 0 0 0 0 0 0 0 0 0 0 0.05 0"/>
<feBlend mode="normal" in2="BackgroundImageFix" result="effect1_dropShadow_1297_8261"/>
<feBlend mode="normal" in="SourceGraphic" in2="effect1_dropShadow_1297_8261" result="shape"/>
</filter>
<filter id="filter2_d_1297_8261" x="16" y="482" width="835" height="215" filterUnits="userSpaceOnUse" color-interpolation-filters="sRGB">
<feFlood flood-opacity="0" result="BackgroundImageFix"/>
<feColorMatrix in="SourceAlpha" type="matrix" values="0 0 0 0 0 0 0 0 0 0 0 0 0 0 0 0 0 0 127 0" result="hardAlpha"/>
<feOffset dx="4" dy="4"/>
<feGaussianBlur stdDeviation="2"/>
<feComposite in2="hardAlpha" operator="out"/>
<feColorMatrix type="matrix" values="0 0 0 0 0 0 0 0 0 0 0 0 0 0 0 0 0 0 0.05 0"/>
<feBlend mode="normal" in2="BackgroundImageFix" result="effect1_dropShadow_1297_8261"/>
<feBlend mode="normal" in="SourceGraphic" in2="effect1_dropShadow_1297_8261" result="shape"/>
</filter>
<filter id="filter3_d_1297_8261" x="18" y="155" width="198.333" height="98" filterUnits="userSpaceOnUse" color-interpolation-filters="sRGB">
<feFlood flood-opacity="0" result="BackgroundImageFix"/>
<feColorMatrix in="SourceAlpha" type="matrix" values="0 0 0 0 0 0 0 0 0 0 0 0 0 0 0 0 0 0 127 0" result="hardAlpha"/>
<feOffset dx="4" dy="4"/>
<feGaussianBlur stdDeviation="2"/>
<feComposite in2="hardAlpha" operator="out"/>
<feColorMatrix type="matrix" values="0 0 0 0 0 0 0 0 0 0 0 0 0 0 0 0 0 0 0.05 0"/>
<feBlend mode="normal" in2="BackgroundImageFix" result="effect1_dropShadow_1297_8261"/>
<feBlend mode="normal" in="SourceGraphic" in2="effect1_dropShadow_1297_8261" result="shape"/>
</filter>
<filter id="filter4_d_1297_8261" x="228.333" y="155" width="198.333" height="98" filterUnits="userSpaceOnUse" color-interpolation-filters="sRGB">
<feFlood flood-opacity="0" result="BackgroundImageFix"/>
<feColorMatrix in="SourceAlpha" type="matrix" values="0 0 0 0 0 0 0 0 0 0 0 0 0 0 0 0 0 0 127 0" result="hardAlpha"/>
<feOffset dx="4" dy="4"/>
<feGaussianBlur stdDeviation="2"/>
<feComposite in2="hardAlpha" operator="out"/>
<feColorMatrix type="matrix" values="0 0 0 0 0 0 0 0 0 0 0 0 0 0 0 0 0 0 0.05 0"/>
<feBlend mode="normal" in2="BackgroundImageFix" result="effect1_dropShadow_1297_8261"/>
<feBlend mode="normal" in="SourceGraphic" in2="effect1_dropShadow_1297_8261" result="shape"/>
</filter>
<filter id="filter5_d_1297_8261" x="438.667" y="155" width="198.333" height="98" filterUnits="userSpaceOnUse" color-interpolation-filters="sRGB">
<feFlood flood-opacity="0" result="BackgroundImageFix"/>
<feColorMatrix in="SourceAlpha" type="matrix" values="0 0 0 0 0 0 0 0 0 0 0 0 0 0 0 0 0 0 127 0" result="hardAlpha"/>
<feOffset dx="4" dy="4"/>
<feGaussianBlur stdDeviation="2"/>
<feComposite in2="hardAlpha" operator="out"/>
<feColorMatrix type="matrix" values="0 0 0 0 0 0 0 0 0 0 0 0 0 0 0 0 0 0 0.05 0"/>
<feBlend mode="normal" in2="BackgroundImageFix" result="effect1_dropShadow_1297_8261"/>
<feBlend mode="normal" in="SourceGraphic" in2="effect1_dropShadow_1297_8261" result="shape"/>
</filter>
<filter id="filter6_d_1297_8261" x="649" y="155" width="198.333" height="98" filterUnits="userSpaceOnUse" color-interpolation-filters="sRGB">
<feFlood flood-opacity="0" result="BackgroundImageFix"/>
<feColorMatrix in="SourceAlpha" type="matrix" values="0 0 0 0 0 0 0 0 0 0 0 0 0 0 0 0 0 0 127 0" result="hardAlpha"/>
<feOffset dx="4" dy="4"/>
<feGaussianBlur stdDeviation="2"/>
<feComposite in2="hardAlpha" operator="out"/>
<feColorMatrix type="matrix" values="0 0 0 0 0 0 0 0 0 0 0 0 0 0 0 0 0 0 0.05 0"/>
<feBlend mode="normal" in2="BackgroundImageFix" result="effect1_dropShadow_1297_8261"/>
<feBlend mode="normal" in="SourceGraphic" in2="effect1_dropShadow_1297_8261" result="shape"/>
</filter>
<clipPath id="clip0_1297_8261">
<rect width="1280" height="720" fill="white"/>
</clipPath>
</defs>
</svg>
